<?xml version="1.0" encoding="utf-8"?>
<!-- Generator: Adobe Illustrator 23.0.1, SVG Export Plug-In . SVG Version: 6.00 Build 0)  -->
<svg version="1.1" id="Слой_1" xmlns="http://www.w3.org/2000/svg" xmlns:xlink="http://www.w3.org/1999/xlink" x="0px" y="0px"
	 viewBox="0 0 52 52" style="enable-background:new 0 0 52 52;" xml:space="preserve">
<style type="text/css">
	.st0{fill:none;stroke:#184C20;stroke-miterlimit:10;}
	.st1{fill:#B7182F;}
	.st2{fill:#20602C;}
	.st3{fill:#184C20;}
	.st4{fill:#FFFFFF;}
</style>
<circle class="st0" cx="26" cy="26" r="24.86"/>
<path class="st1" d="M36.67,14.91c-1.01-0.71-1.96-0.98-2.76-0.98c-0.8,0-1.43,0.18-2.09,0.53c-0.67,0.36-1.56,0.94-1.56,0.94
	s-0.18-3.22-4.11-7.43c0,0,0-0.01,0-0.01c0,0,0,0,0,0.01c0,0,0,0,0-0.01c0,0,0,0.01,0,0.01c-3.93,4.2-4.11,7.43-4.11,7.43
	s-0.89-0.58-1.56-0.94s-1.29-0.53-2.09-0.53s-1.75,0.27-2.76,0.98c-0.98,0.69-1.51,1.83-1.51,1.83s0.32,0.02,1.35,0.51
	c1.09,0.52,1.37,0.99,1.86,1.89c0.53,0.98,1.2,3.12,1.6,5.03c0.4,1.92,1.43,4.59,1.92,5.52c0.49,0.94,1.25,1.29,2.45,1.43
	c1.03,0.11,2.47-0.39,2.87-0.54c0.4,0.15,1.84,0.65,2.87,0.54c1.2-0.13,1.96-0.49,2.45-1.43c0.49-0.94,1.51-3.61,1.92-5.52
	c0.4-1.92,1.07-4.06,1.6-5.03c0.49-0.9,0.77-1.37,1.86-1.89c1.03-0.49,1.35-0.51,1.35-0.51S37.65,15.6,36.67,14.91z"/>
<path class="st2" d="M25.87,32.01c-0.5-0.69-4.56,2.06-7.33,0.82c-0.25-0.11-0.9-0.4-1-0.94c-0.16-0.88,1.35-1.53,1.16-2.21
	c-0.14-0.5-1.16-0.87-2-0.67c-1.34,0.32-1.6,1.93-2.78,1.94c-0.34,0-0.4-0.13-0.82-0.25c-1.23-0.33-2.95,0.2-3.9,1.38
	c-0.94,1.17-1.07,2.91-0.32,4.41c0.2,0.39,0.75,0.44,0.97,0.06c0.2-0.35,0.5-0.75,0.93-1.08c0.16-0.13,0.81-0.61,1.72-0.74
	c1.82-0.25,2.6,1.23,4.92,1.83c0.21,0.05,1.73,0.43,3.39,0.07C24.08,35.92,26.31,32.62,25.87,32.01z"/>
<path class="st2" d="M26.57,32.01c0.5-0.69,4.56,2.06,7.33,0.82c0.25-0.11,0.9-0.4,1-0.94c0.16-0.88-1.35-1.53-1.16-2.21
	c0.14-0.5,1.16-0.87,2-0.67c1.34,0.32,1.6,1.93,2.78,1.94c0.34,0,0.4-0.13,0.82-0.25c1.23-0.33,2.95,0.2,3.9,1.38
	c0.94,1.17,1.07,2.91,0.32,4.41c-0.2,0.39-0.75,0.44-0.97,0.06c-0.2-0.35-0.5-0.75-0.93-1.08c-0.16-0.13-0.81-0.61-1.72-0.74
	c-1.82-0.25-2.6,1.23-4.92,1.83c-0.21,0.05-1.73,0.43-3.39,0.07C28.35,35.92,26.13,32.62,26.57,32.01z"/>
<polygon class="st2" points="26.17,33.79 23.73,36.31 26.17,38.84 28.55,36.31 "/>
<g>
	<path class="st3" d="M23.62,48.06c-1.5-0.14-2.83,0.96-2.97,2.47l5.44,0.51C26.23,49.53,25.12,48.2,23.62,48.06z"/>
	<circle class="st4" cx="23.49" cy="49.51" r="0.86"/>
</g>
<g>
	<path class="st3" d="M19,47.02c-1.43-0.48-2.98,0.29-3.46,1.72l5.18,1.73C21.21,49.04,20.43,47.49,19,47.02z"/>
	<circle class="st4" cx="18.54" cy="48.4" r="0.86"/>
</g>
<g>
	<path class="st3" d="M32.91,47c-1.42,0.51-2.16,2.07-1.65,3.49l5.15-1.84C35.89,47.23,34.33,46.49,32.91,47z"/>
	<circle class="st4" cx="33.39" cy="48.37" r="0.86"/>
</g>
<g>
	<path class="st3" d="M28.28,48.01c-1.5,0.17-2.58,1.52-2.41,3.02l5.43-0.62C31.13,48.91,29.78,47.84,28.28,48.01z"/>
	<circle class="st4" cx="28.44" cy="49.45" r="0.86"/>
</g>
<g>
	<path class="st3" d="M15.05,45.11c-1.32-0.72-2.98-0.24-3.71,1.09l4.79,2.62C16.86,47.49,16.37,45.83,15.05,45.11z"/>
	<circle class="st4" cx="14.35" cy="46.38" r="0.86"/>
</g>
<g>
	<path class="st3" d="M11.22,42.32c-1.12-1.01-2.85-0.91-3.86,0.21l4.07,3.65C12.44,45.05,12.34,43.33,11.22,42.32z"/>
	<circle class="st4" cx="10.25" cy="43.4" r="0.86"/>
</g>
<g>
	<path class="st3" d="M8.03,38.75c-0.91-1.2-2.62-1.44-3.83-0.53l3.29,4.36C8.7,41.67,8.94,39.96,8.03,38.75z"/>
	<circle class="st4" cx="6.87" cy="39.63" r="0.86"/>
</g>
<g>
	<path class="st3" d="M5.69,34.64c-0.61-1.38-2.22-2-3.6-1.39l2.21,5C5.67,37.63,6.3,36.02,5.69,34.64z"/>
	<circle class="st4" cx="4.36" cy="35.23" r="0.86"/>
</g>
<g>
	<path class="st3" d="M4.43,30.43c-0.36-1.47-1.83-2.37-3.3-2.01l1.29,5.31C3.89,33.37,4.79,31.9,4.43,30.43z"/>
	<circle class="st4" cx="3.02" cy="30.77" r="0.86"/>
</g>
<g>
	<path class="st3" d="M3.91,25.72C3.9,24.22,2.66,23,1.15,23.02l0.05,5.46C2.71,28.47,3.92,27.23,3.91,25.72z"/>
	<circle class="st4" cx="2.46" cy="25.74" r="0.86"/>
</g>
<g>
	<path class="st3" d="M4.19,21.18c0.31-1.48-0.64-2.93-2.11-3.24l-1.12,5.35C2.43,23.6,3.88,22.66,4.19,21.18z"/>
	<circle class="st4" cx="2.76" cy="20.88" r="0.86"/>
</g>
<g>
	<path class="st3" d="M5.75,16.71c0.64-1.37,0.05-2.99-1.32-3.63l-2.31,4.95C3.48,18.67,5.11,18.08,5.75,16.71z"/>
	<circle class="st4" cx="4.43" cy="16.1" r="0.86"/>
</g>
<g>
	<path class="st3" d="M8.1,13c0.87-1.23,0.58-2.94-0.66-3.81l-3.15,4.46C5.52,14.53,7.23,14.23,8.1,13z"/>
	<circle class="st4" cx="6.91" cy="12.16" r="0.86"/>
</g>
<g>
	<path class="st3" d="M11.3,9.51c1.13-1,1.23-2.73,0.23-3.86L7.44,9.28C8.45,10.41,10.17,10.52,11.3,9.51z"/>
	<circle class="st4" cx="10.33" cy="8.43" r="0.86"/>
</g>
<g>
	<path class="st3" d="M15.21,6.75c1.3-0.77,1.73-2.44,0.97-3.74l-4.71,2.77C12.23,7.09,13.91,7.52,15.21,6.75z"/>
	<circle class="st4" cx="14.47" cy="5.5" r="0.86"/>
</g>
<g>
	<path class="st3" d="M19.56,4.89c1.44-0.45,2.24-1.98,1.8-3.42L16.14,3.1C16.59,4.54,18.12,5.34,19.56,4.89z"/>
	<circle class="st4" cx="19.13" cy="3.5" r="0.86"/>
</g>
<g>
	<path class="st3" d="M23.97,4.06c1.5-0.12,2.62-1.44,2.5-2.94l-5.45,0.44C21.15,3.06,22.47,4.18,23.97,4.06z"/>
	<circle class="st4" cx="23.85" cy="2.61" r="0.86"/>
</g>
<g>
	<path class="st3" d="M28.62,4.14c1.5,0.16,2.85-0.93,3-2.43l-5.43-0.58C26.03,2.64,27.12,3.99,28.62,4.14z"/>
	<circle class="st4" cx="28.77" cy="2.7" r="0.86"/>
</g>
<g>
	<path class="st3" d="M32.48,5.04c1.45,0.41,2.96-0.43,3.38-1.88l-5.26-1.5C30.19,3.11,31.03,4.62,32.48,5.04z"/>
	<circle class="st4" cx="32.88" cy="3.64" r="0.86"/>
</g>
<g>
	<path class="st3" d="M36.83,6.91c1.32,0.73,2.98,0.26,3.72-1.06l-4.77-2.66C35.04,4.51,35.52,6.17,36.83,6.91z"/>
	<circle class="st4" cx="37.54" cy="5.64" r="0.86"/>
</g>
<g>
	<path class="st3" d="M40.37,9.51c1.17,0.95,2.89,0.78,3.84-0.39l-4.23-3.46C39.03,6.84,39.2,8.56,40.37,9.51z"/>
	<circle class="st4" cx="41.29" cy="8.38" r="0.86"/>
</g>
<g>
	<path class="st3" d="M43.62,12.95c0.92,1.2,2.63,1.42,3.83,0.5l-3.33-4.33C42.93,10.04,42.7,11.76,43.62,12.95z"/>
	<circle class="st4" cx="44.78" cy="12.07" r="0.86"/>
</g>
<g>
	<path class="st3" d="M46.14,16.75c0.64,1.37,2.27,1.95,3.64,1.31l-2.33-4.94C46.08,13.75,45.5,15.38,46.14,16.75z"/>
	<circle class="st4" cx="47.46" cy="16.13" r="0.86"/>
</g>
<g>
	<path class="st3" d="M47.59,21.25c0.31,1.48,1.76,2.42,3.24,2.1l-1.14-5.34C48.21,18.33,47.27,19.78,47.59,21.25z"/>
	<circle class="st4" cx="49.01" cy="20.95" r="0.86"/>
</g>
<g>
	<path class="st3" d="M47.95,25.63c0.05,1.51,1.31,2.69,2.82,2.64l-0.17-5.46C49.09,22.86,47.9,24.12,47.95,25.63z"/>
	<circle class="st4" cx="49.4" cy="25.59" r="0.86"/>
</g>
<g>
	<path class="st3" d="M47.49,30.34c-0.3,1.48,0.66,2.92,2.14,3.22l1.08-5.36C49.23,27.91,47.79,28.86,47.49,30.34z"/>
	<circle class="st4" cx="48.92" cy="30.63" r="0.86"/>
</g>
<g>
	<path class="st3" d="M46.04,34.9c-0.58,1.39,0.09,2.99,1.48,3.57l2.09-5.05C48.21,32.84,46.62,33.51,46.04,34.9z"/>
	<circle class="st4" cx="47.38" cy="35.46" r="0.86"/>
</g>
<g>
	<path class="st3" d="M43.68,39.01c-0.88,1.23-0.6,2.93,0.63,3.81l3.18-4.44C46.27,37.5,44.56,37.78,43.68,39.01z"/>
	<circle class="st4" cx="44.87" cy="39.86" r="0.86"/>
</g>
<g>
	<path class="st3" d="M40.7,42.23c-1.08,1.05-1.11,2.78-0.05,3.86l3.92-3.81C43.51,41.2,41.78,41.18,40.7,42.23z"/>
	<circle class="st4" cx="41.71" cy="43.27" r="0.86"/>
</g>
<g>
	<path class="st3" d="M36.91,45.07c-1.29,0.78-1.71,2.46-0.93,3.75L40.65,46C39.88,44.71,38.2,44.29,36.91,45.07z"/>
	<circle class="st4" cx="37.66" cy="46.31" r="0.86"/>
</g>
</svg>
