<?xml version="1.0" standalone="no"?>
<!DOCTYPE svg PUBLIC "-//W3C//DTD SVG 20010904//EN"
 "http://www.w3.org/TR/2001/REC-SVG-20010904/DTD/svg10.dtd">
<svg version="1.0" xmlns="http://www.w3.org/2000/svg"
 width="512.000000pt" height="512.000000pt" viewBox="0 0 512.000000 512.000000"
 preserveAspectRatio="xMidYMid meet">

<g transform="translate(0.000000,512.000000) scale(0.100000,-0.100000)"
fill="#000000" stroke="none">
<path d="M2197 4145 c-262 -33 -529 -114 -752 -227 l-49 -25 59 -18 c527 -153
1262 -187 1845 -85 150 26 410 91 410 103 0 11 -158 84 -283 131 -121 45 -290
89 -427 111 -144 23 -650 30 -803 10z"/>
<path d="M1059 3646 c-412 -330 -674 -816 -729 -1351 -7 -60 -10 -127 -8 -147
l3 -37 165 89 c183 99 248 125 362 140 141 20 317 -21 433 -99 27 -18 115 -87
197 -154 82 -67 165 -131 186 -142 21 -11 63 -21 99 -23 89 -6 132 19 348 199
111 92 203 161 241 179 128 62 280 62 408 0 37 -17 136 -91 251 -185 105 -87
203 -164 220 -172 16 -9 57 -18 91 -21 88 -7 137 20 329 178 88 72 183 144
212 161 117 67 279 100 404 81 112 -17 165 -37 352 -137 l172 -92 3 31 c6 51
-17 253 -42 371 -97 456 -362 878 -730 1159 l-78 60 -126 -42 c-375 -122 -744
-171 -1294 -172 -258 0 -417 10 -633 41 -205 29 -499 98 -654 153 -24 9 -51
16 -60 16 -10 0 -64 -38 -122 -84z"/>
<path d="M810 2112 c-30 -11 -153 -70 -273 -133 l-217 -114 2 -240 3 -240 65
-18 c101 -27 340 -74 495 -96 840 -121 2288 -130 3205 -20 263 31 591 93 687
130 l23 9 0 239 0 239 -233 121 c-255 132 -299 147 -416 138 -106 -8 -184 -50
-356 -193 -168 -140 -223 -176 -303 -203 -82 -28 -207 -28 -293 -1 -81 25
-125 55 -329 225 -91 75 -183 145 -205 156 -53 25 -147 25 -200 0 -22 -10
-124 -88 -226 -172 -102 -85 -203 -164 -225 -176 -105 -57 -256 -71 -375 -34
-77 24 -124 56 -319 216 -183 150 -240 178 -365 182 -67 2 -104 -2 -145 -15z"/>
<path d="M320 993 c0 -246 5 -254 200 -297 415 -91 880 -136 1637 -157 951
-27 1966 39 2481 161 154 37 162 51 162 294 0 97 -2 176 -5 176 -2 0 -65 -14
-140 -30 -351 -79 -741 -127 -1305 -162 -272 -16 -1307 -17 -1580 0 -549 34
-941 82 -1281 157 -86 19 -159 35 -162 35 -4 0 -7 -80 -7 -177z"/>
</g>
</svg>
