<?xml version="1.0" encoding="utf-8"?>
<!-- Generator: Adobe Illustrator 23.0.1, SVG Export Plug-In . SVG Version: 6.00 Build 0)  -->
<svg version="1.1" id="Слой_1" xmlns="http://www.w3.org/2000/svg" xmlns:xlink="http://www.w3.org/1999/xlink" x="0px" y="0px"
	 viewBox="0 0 1480 2160" style="enable-background:new 0 0 1480 2160;" xml:space="preserve">
<style type="text/css">
	.st0{fill:#FFFFFF;stroke:#231F20;stroke-miterlimit:10;}
	.st1{fill:#A8988C;}
	.st2{fill:#DDD0CB;}
	.st3{fill:#6B3F36;}
	.st4{opacity:0.26;}
	.st5{clip-path:url(#SVGID_2_);fill:#533224;}
	.st6{clip-path:url(#SVGID_4_);fill:#533224;}
	.st7{clip-path:url(#SVGID_6_);fill:#533224;}
	.st8{clip-path:url(#SVGID_8_);fill:#533224;}
	.st9{clip-path:url(#SVGID_10_);fill:#533224;}
	.st10{clip-path:url(#SVGID_12_);fill:#533224;}
</style>
<path class="st0" d="M1480,246.19c-0.26,7.77-0.16,15.61,0,23.42V2160H0V1071.7c0.46-0.73,0.72-1.58,0.65-2.5
	c-0.25-3.47-0.49-6.93-0.65-10.4v-14.66c0.1-1.71,0.22-3.41,0.42-5.12c0.11-1-0.07-1.83-0.42-2.52v-40.84
	c0.06-2.05,0.05-4.11,0-6.17v-22.9c0.04-0.37,0.07-0.74,0.12-1.11c0.09-0.72,0.03-1.35-0.12-1.9V0h1480V246.19z"/>
<ellipse transform="matrix(0.2233 -0.9747 0.9747 0.2233 -234.3266 649.5534)" class="st1" cx="290.43" cy="471.82" rx="24.11" ry="184.76"/>
<path class="st2" d="M285.5,476.52L285.5,476.52c-97.03-22.23-158.23-119.81-136-216.84l14.49-63.23
	c14.88-64.95,80.2-105.92,145.15-91.04l116.66,26.73c64.95,14.88,105.92,80.2,91.04,145.15l-14.49,63.23
	C480.1,437.54,382.53,498.74,285.5,476.52z"/>
<path class="st2" d="M519.34,233.69c-1.96-0.44-3.96-0.78-5.95-1.1c-0.34-0.06-0.68-0.12-1.02-0.17l-1.38-0.32
	c-9.64-1.4-19.28-1.37-28.62,0.17c-0.04,0.01-0.07,0.01-0.11,0.02c-29.62,4.17-55.95,21.32-71.61,46.73
	c-0.01,0.02-0.02,0.03-0.03,0.04c-5.83,9.3-10.13,19.6-12.69,30.77c-11.05,48.24,14.33,96.44,58.31,115.54
	c0.02,0.01,0.04,0.02,0.05,0.03c3.05,1.34,6.3,2.57,9.58,3.64c2.73,0.79,5.44,1.57,8.2,2.2c54.51,12.48,108.75-21.67,121.24-76.18
	C607.82,300.55,573.85,246.19,519.34,233.69z M567.15,348.6c-8.95,39.05-47.72,63.37-86.61,54.46c-1.66-0.38-3.34-0.76-4.96-1.29
	c-0.02-0.01-0.04-0.01-0.05-0.02c-1.04-0.4-2.11-0.65-3.14-1.04c-34.28-12.2-54.57-48.12-46.27-84.41
	c8.28-36.14,42.23-59.79,78.4-55.86c2.67,0.28,5.61,0.8,8.37,1.43c1.07,0.25,2.14,0.49,3.19,0.88c0.21,0.06,0.42,0.12,0.64,0.19
	C553.31,273.44,575.76,311,567.15,348.6z"/>
<ellipse transform="matrix(0.2233 -0.9747 0.9747 0.2233 70.2836 503.7139)" class="st3" cx="351.22" cy="207.75" rx="67.4" ry="133.74"/>
<g class="st4">
	<defs>
		
			<ellipse id="SVGID_1_" transform="matrix(0.2233 -0.9747 0.9747 0.2233 70.2836 503.7139)" class="st4" cx="351.22" cy="207.75" rx="67.4" ry="133.74"/>
	</defs>
	<clipPath id="SVGID_2_">
		<use xlink:href="#SVGID_1_"  style="overflow:visible;"/>
	</clipPath>
	<path class="st5" d="M366.27,142.06c0,0-38.1,20.67-39.57,47.58s54.69,90.05,54.69,90.05l-43.46,48.55l-126.6-74.67l-4.67-67.55
		l30-48.87L304,121.69L366.27,142.06z"/>
</g>
<g>
	
		<ellipse transform="matrix(0.9615 -0.2747 0.2747 0.9615 -204.9827 290.7592)" class="st1" cx="935.75" cy="877.33" rx="155.53" ry="20.3"/>
	<path class="st2" d="M934.01,882.8L934.01,882.8c-80.57,23.02-165.33-24.08-188.35-104.65l-11.31-39.58
		c-17.44-61.04,18.24-125.26,79.29-142.69l71.02-20.29c61.04-17.44,125.26,18.24,142.69,79.29l11.31,39.58
		C1061.68,775.02,1014.59,859.78,934.01,882.8z"/>
	<path class="st2" d="M1113.14,667.41c-12.93-45.27-60.05-71.55-105.32-58.62c-1.63,0.46-3.23,1.02-4.83,1.6
		c-0.27,0.1-0.54,0.19-0.81,0.29l-1.15,0.32c-7.67,2.88-14.77,6.82-21.03,11.76c-0.02,0.01-0.05,0.03-0.07,0.05
		c-20.15,15.1-32.6,38.45-33.83,63.54v0.03c-0.53,9.23,0.49,18.57,3.14,27.85c11.44,40.06,49.73,65.29,89.91,61.51
		c0.01,0,0.04,0,0.05-0.01c2.8-0.25,5.68-0.66,8.54-1.21c2.32-0.53,4.65-1.06,6.93-1.71
		C1099.95,759.89,1126.07,712.68,1113.14,667.41z M1047.99,749.42c-1.39,0.39-2.76,0.8-4.19,1.07c-0.01,0-0.03,0.01-0.04,0.01
		c-0.93,0.13-1.82,0.38-2.74,0.51c-30.23,4.92-59.79-13.32-68.4-43.45c-8.57-30.01,6.85-61.24,35.12-73.02
		c2.09-0.87,4.47-1.69,6.76-2.35c0.89-0.25,1.78-0.51,2.7-0.63c0.18-0.04,0.36-0.08,0.54-0.12c31.25-7.13,63.07,11.43,71.99,42.66
		C1099.01,706.52,1080.3,740.2,1047.99,749.42z"/>
	
		<ellipse transform="matrix(0.9615 -0.2747 0.2747 0.9615 -147.1227 265.1764)" class="st3" cx="873.33" cy="657.93" rx="112.58" ry="56.73"/>
	<g class="st4">
		<defs>
			
				<ellipse id="SVGID_3_" transform="matrix(0.9615 -0.2747 0.2747 0.9615 -147.1227 265.1764)" class="st4" cx="873.33" cy="657.93" rx="112.58" ry="56.73"/>
		</defs>
		<clipPath id="SVGID_4_">
			<use xlink:href="#SVGID_3_"  style="overflow:visible;"/>
		</clipPath>
		<path class="st6" d="M857.74,603.38c0,0-19.7,30.72-9.85,51.15c9.85,20.44,76.9,44.19,76.9,44.19l-12.33,53.45l-123.68-3.64
			l-30.88-47.91l2.27-48.21l43.37-38.75L857.74,603.38z"/>
	</g>
</g>
<path class="st1" d="M1480,501.22c-9.41,3.27-18.42,6.51-26.96,9.71c-55.76,20.94-91.42,40.05-88.73,49.46
	c2.9,10.16,49.7,6.32,115.69-7.83v-36.14V501.22z"/>
<path class="st2" d="M1480,246.19V102.63l-78.84,22.52c-81.96,23.41-129.86,109.62-106.45,191.58l15.18,53.14
	c20.3,71.07,76.38,122.74,143.15,141.06c8.82,2.43,17.83,4.27,26.96,5.49V269.61C1479.84,261.8,1479.74,253.96,1480,246.19z"/>
<path class="st3" d="M1480,246.19V130.32c-6.49,1.39-13.04,3.03-19.64,4.91c-80.27,22.93-135.97,74.31-124.42,114.76
	c10.48,36.69,72.69,51.78,144.06,37.16v-17.54C1479.84,261.8,1479.74,253.96,1480,246.19z"/>
<g class="st4">
	<defs>
		
			<ellipse id="SVGID_5_" transform="matrix(0.9615 -0.2747 0.2747 0.9615 -0.2889 414.8758)" class="st4" cx="1481.29" cy="208.47" rx="151.15" ry="76.17"/>
	</defs>
	<clipPath id="SVGID_6_">
		<use xlink:href="#SVGID_5_"  style="overflow:visible;"/>
	</clipPath>
	<path class="st7" d="M1540.08,274.06c-6.47,2.75-12.58,6.05-19.46,7.72c-3.71,0.9-6.03-1.73-6.1-4.6
		c-4.19,2.64-8.46,5.1-12.67,7.42c-0.86,0.47-1.75,0.64-2.61,0.57c-0.68,1.15-1.42,2.26-2.25,3.34c-1.61,2.08-4.54,2.73-6.69,1.84
		c-0.09,6.35-10,6.32-10-0.09c0-18.12-1.26-36.76,0.31-54.81c0.1-1.11,0.22-2.2,0.37-3.29c-15.82-8.97-29.33-18.88-33.85-28.27
		c-13.22-27.44,13.23-68.68,13.23-68.68l-72.76,13.8l-58.23,52.03l-3.05,64.73l41.46,64.33l166.05,4.89l14.94-64.77
		C1545.96,271.63,1543.04,272.81,1540.08,274.06z"/>
</g>
<path class="st1" d="M163.43,1260.18C97.8,1281.25,38.26,1295.8,0,1301.02v-35.82c12.36-6.12,26.97-12.67,43.36-19.43
	c29.61-12.22,65-25.16,103.4-37.49c35.41-11.37,69.04-20.84,98.52-27.97c61.93-14.98,105.51-19.64,108.63-9.93
	C358.51,1184.72,273.23,1224.92,163.43,1260.18z"/>
<path class="st2" d="M285.22,984.34l-16.89-52.62c-3.55-11.05-8.24-21.43-13.91-31.05c-5.91-10.06-12.89-19.29-20.74-27.59
	c-39.76-42.1-101.74-60.33-160.3-41.53L0,855.12v108.46c0.15,0.55,0.21,1.18,0.12,1.9c-0.05,0.37-0.08,0.75-0.12,1.12v22.9
	c0.05,2.06,0.06,4.11,0,6.17v40.84c0.35,0.69,0.53,1.52,0.42,2.52c-0.19,1.71-0.32,3.42-0.42,5.12v14.65
	c0.16,3.47,0.4,6.94,0.65,10.4c0.07,0.93-0.19,1.77-0.65,2.5v158.38c13.79,6.81,28.33,12.09,43.36,15.69
	c35.14,8.43,72.91,7.68,109.65-4.12c37.12-11.92,68.52-33.62,92.27-61.34c21.42-24.99,36.63-54.87,44.2-86.91
	c2.65-11.14,4.36-22.55,5.09-34.1C296.14,1034.6,293.22,1009.24,285.22,984.34z"/>
<path class="st2" d="M383.98,944.8c-19.32-60.18-83.7-93.4-143.88-74.07c-2.17,0.69-4.3,1.51-6.42,2.35
	c-0.36,0.14-0.72,0.29-1.08,0.43l-1.52,0.49c-10.17,4.19-19.53,9.79-27.72,16.68c-0.03,0.03-0.06,0.05-0.09,0.08
	c-26.38,21.15-42.06,53.01-42.62,86.73v0.06c-0.31,12.41,1.46,24.89,5.42,37.23c17.11,53.25,69.59,85.45,123.35,78.63
	c0.02,0,0.04,0,0.06-0.01c3.74-0.47,7.61-1.15,11.41-2c3.1-0.81,6.2-1.62,9.24-2.6C370.31,1069.48,403.31,1004.99,383.98,944.8z
	 M300.14,1057.7c-1.84,0.59-3.68,1.18-5.57,1.6c-0.02,0.01-0.04,0.02-0.06,0.02c-1.24,0.21-2.42,0.59-3.66,0.8
	c-40.35,7.93-80.8-15.26-93.67-55.33c-12.81-39.89,6.52-82.47,43.94-99.52c2.77-1.26,5.92-2.46,8.97-3.44
	c1.18-0.38,2.36-0.76,3.6-0.97c0.24-0.07,0.49-0.13,0.73-0.19c41.63-10.92,85.13,12.61,98.46,54.12
	C366.72,997.9,343.08,1043.91,300.14,1057.7z"/>
<path class="st3" d="M205.68,896.33c-0.63-1.95-1.4-3.83-2.32-5.65c-17.85-35.47-89.28-44.94-164.89-20.66
	C24.82,874.4,11.93,879.6,0,885.41v78.17c0.15,0.55,0.21,1.18,0.12,1.9c-0.05,0.37-0.08,0.75-0.12,1.12v22.9
	c0.05,2.06,0.06,4.11,0,6.17v32.85c25.62,0.53,55-3.79,85.05-13.44c29.38-9.44,55.27-22.65,75.6-37.58
	C195.32,952.03,213.79,921.58,205.68,896.33z"/>
<g>
	
		<ellipse transform="matrix(0.1794 -0.9838 0.9838 0.1794 -728.4938 2204.8455)" class="st1" cx="957.45" cy="1539.12" rx="21.25" ry="162.8"/>
	<path class="st2" d="M953.29,1543.45L953.29,1543.45c-86.29-15.74-144.01-99.22-128.27-185.51l7.73-42.39
		c11.92-65.37,75.17-109.11,140.54-97.18l76.06,13.87c65.37,11.92,109.11,75.17,97.18,140.54l-7.73,42.39
		C1123.06,1501.47,1039.58,1559.19,953.29,1543.45z"/>
	<path class="st2" d="M1149.55,1320.48c-1.75-0.31-3.51-0.54-5.28-0.74c-0.3-0.03-0.6-0.07-0.9-0.1l-1.22-0.23
		c-8.54-0.86-17.03-0.44-25.19,1.29c-0.03,0-0.06,0.01-0.09,0.02c-25.91,4.84-48.41,20.98-61.19,43.96
		c-0.01,0.02-0.02,0.02-0.02,0.04c-4.77,8.41-8.15,17.65-9.96,27.59c-7.83,42.89,16.42,84.32,55.88,99.4
		c0.02,0.01,0.03,0.02,0.05,0.02h0.01c2.74,1.06,5.64,2.01,8.57,2.83c2.42,0.58,4.86,1.16,7.3,1.61
		c48.48,8.85,94.88-23.36,103.72-71.83C1230.07,1375.83,1198.03,1329.33,1149.55,1320.48z M1196.17,1419.75
		c-6.33,34.72-39.5,57.66-74.1,51.35c-1.48-0.27-2.95-0.54-4.41-0.94c-0.02-0.01-0.04-0.01-0.05-0.02c-0.93-0.31-1.88-0.48-2.81-0.8
		c-30.65-9.39-49.93-40.21-44.05-72.48c5.86-32.14,34.81-54.29,66.8-52.26c2.36,0.15,4.98,0.48,7.43,0.93
		c0.95,0.18,1.91,0.35,2.84,0.66c0.19,0.05,0.38,0.09,0.57,0.14C1181.02,1354.13,1202.27,1386.3,1196.17,1419.75z"/>
	
		<ellipse transform="matrix(0.1794 -0.9838 0.9838 0.1794 -462.1036 2054.5371)" class="st3" cx="1000.54" cy="1304.28" rx="59.38" ry="117.84"/>
	<g class="st4">
		<defs>
			
				<ellipse id="SVGID_7_" transform="matrix(0.1794 -0.9838 0.9838 0.1794 -462.1036 2054.5371)" class="st4" cx="1000.54" cy="1304.28" rx="59.38" ry="117.84"/>
		</defs>
		<clipPath id="SVGID_8_">
			<use xlink:href="#SVGID_7_"  style="overflow:visible;"/>
		</clipPath>
		<path class="st8" d="M1011.2,1245.86c0,0-32.72,19.7-32.95,43.44c-0.23,23.75,51.69,77.11,51.69,77.11l-36.34,44.45l-114.39-60.73
			l-6.78-59.28l24.48-44.2l58.67-16.27L1011.2,1245.86z"/>
	</g>
</g>
<path class="st1" d="M689.91,2160H542.2c26.71-1.46,51.76-2.25,74.49-2.4C645.15,2157.41,669.98,2158.22,689.91,2160z"/>
<path class="st2" d="M616.69,2157.6c-1.01,0.81-2.04,1.61-3.06,2.4H237.41c-47.45-39.86-80.01-97.51-86.42-163.69l-12.29-126.8
	c-10.36-106.96,68.67-202.95,175.63-213.31l168.41-16.32c106.95-10.36,202.94,68.67,213.31,175.62l12.28,126.8
	C716.6,2027.7,679.42,2107.53,616.69,2157.6z"/>
<path class="st2" d="M848.54,1883.3c-8.35-86.1-84.78-149.27-170.89-140.92c-3.11,0.29-6.19,0.78-9.27,1.27
	c-0.52,0.08-1.05,0.18-1.57,0.26l-2.18,0.22c-14.82,2.64-28.95,7.4-41.92,14.25c-0.05,0.03-0.1,0.05-0.15,0.08
	c-41.43,20.6-71.66,58.65-82.22,103.58v0.01c-0.01,0.03-0.03,0.05-0.03,0.08c-4.01,16.51-5.27,33.71-3.56,51.37
	c7.38,76.19,68.2,134.51,142.08,141.03c0.03,0,0.07,0,0.1,0.01c5.15,0.47,10.5,0.67,15.84,0.64c4.38-0.18,8.76-0.36,13.11-0.78
	C794,2046.07,856.89,1969.42,848.54,1883.3z M703.57,2009.91c-2.63,0.26-5.27,0.52-7.92,0.53h-0.08c-1.71-0.08-3.41,0.08-5.12,0
	c-56.27-1.14-103.64-43.91-109.18-101.24c-5.54-57.09,32.71-108.4,87.71-120.32c4.06-0.88,8.64-1.57,12.99-1.98
	c1.7-0.16,3.39-0.33,5.11-0.26c0.34-0.01,0.68-0.03,1.03-0.04c58.85-2.49,110.18,41.62,115.94,101.02
	C810.01,1949.3,765.01,2003.95,703.57,2009.91z"/>
<ellipse transform="matrix(0.9953 -0.0964 0.0964 0.9953 -170.3444 48.6627)" class="st3" cx="418.25" cy="1786.56" rx="206.88" ry="104.25"/>
<g class="st4">
	<defs>
		
			<ellipse id="SVGID_9_" transform="matrix(0.9953 -0.0964 0.0964 0.9953 -170.3444 48.6627)" class="st4" cx="418.25" cy="1786.56" rx="206.88" ry="104.25"/>
	</defs>
	<clipPath id="SVGID_10_">
		<use xlink:href="#SVGID_9_"  style="overflow:visible;"/>
	</clipPath>
	<path class="st9" d="M408.19,1682.79c0,0-45.8,48.97-34.79,89.18s124.31,105.4,124.31,105.4l-40.03,92.52l-222.32-47.64
		l-39.9-96.85l20.11-86.39l91.25-55.64L408.19,1682.79z"/>
</g>
<g class="st4">
	<defs>
		
			<ellipse id="SVGID_11_" transform="matrix(0.9521 -0.3058 0.3058 0.9521 -285.2366 64.0243)" class="st4" cx="61.76" cy="942.54" rx="151.15" ry="76.17"/>
	</defs>
	<clipPath id="SVGID_12_">
		<use xlink:href="#SVGID_11_"  style="overflow:visible;"/>
	</clipPath>
	<path class="st10" d="M-36.95,889.29c0.63,2.67,0.77,5.48,0.62,8.34c2.27-1.38,4.85-2.15,7.59-2.01c0.11-0.16,0.23-0.33,0.34-0.48
		c4.54-6.16,10.63-10.56,17.38-14.06l-22.78,5.09l-3.18,3.03C-36.97,889.24-36.96,889.26-36.95,889.29z"/>
	<path class="st10" d="M-74.5,1028.03c-0.06-0.3-0.09-0.6-0.08-0.89c0.29-5.55,0.78-11.11,1.42-16.65
		c-1.69-0.41-3.27-1.28-4.66-2.75c-2.26-2.4-3.16-5.5-3.25-8.86c-2.41-2.13-3.19-5.44-3.26-8.74c-1.06-0.85-1.97-1.91-2.62-3.1
		c-0.92-1.68-1.31-3.55-1.37-5.49c-1.48-0.69-2.51-2.12-2.3-4.31c0.96-10.06,4.39-18.92,8.17-28.19c2.09-5.14,3.79-10.17,8.04-13.35
		c-1-0.11-1.98-0.46-2.79-1.03c-0.01,0-0.01,0.01-0.02,0.01c-2.5,1.33-4.87,0.5-6.23-1.17l-6.88,6.56l-0.95,64.8l16.2,23.43
		C-74.88,1028.2-74.69,1028.12-74.5,1028.03z"/>
	<path class="st10" d="M-38.16,1025.18c-0.18-0.09-0.36-0.19-0.53-0.31c-1.01-0.12-2.02-0.27-3-0.47c-0.11,0.08-0.21,0.17-0.32,0.25
		c0.78,0.47,1.52,1.02,2.22,1.63C-39.26,1025.91-38.71,1025.55-38.16,1025.18z"/>
	<path class="st10" d="M-29.72,1041.07c-8.01,4.69-15.74,9.92-24,14.14c1.02-0.14,1.97,0.13,2.77,0.68
		c5.35-2.6,10.56-5.47,15.79-8.32C-33.39,1045.38-31.53,1043.24-29.72,1041.07z"/>
	<path class="st10" d="M-11.15,1030.38c-1.09,2.51-2.41,4.85-3.87,7.08c1.52-0.64,3.04-1.27,4.59-1.84c0.01,0,0.01,0,0.02-0.01
		c0-0.04-0.01-0.07-0.01-0.1c-0.01-1.13-0.03-2.24-0.05-3.36c-0.25-0.5-0.42-1.06-0.47-1.71
		C-11.01,1030.43-11.08,1030.4-11.15,1030.38z"/>
	<path class="st10" d="M27.48,939.09c-14.11-26.99,10.99-69.07,10.99-69.07l-46.39,10.37c0.26,0.03,0.52,0.08,0.77,0.15
		c3.13-0.99,7.64,1.65,6.91,6.06c-0.32,1.93-0.54,3.88-0.72,5.83c0.11,0.43,0.18,0.89,0.18,1.4c0,23.04,0.29,46.07,0.53,69.09
		c0.34,0.69,0.49,1.54,0.36,2.55c-1.45,11.65,0.68,23.32-0.39,34.97c-1.09,11.83-0.25,23.22-0.14,35.07c0,0.11-0.02,0.21-0.02,0.32
		c0.65,0.78,1.01,1.83,0.86,3.19c-1.07,9.53-0.56,19.11,0.13,28.64l117.84-0.36l14.21-72.27C132.6,995.04,41.59,966.09,27.48,939.09
		z"/>
</g>
</svg>
